<svg width="54" height="46" viewBox="0 0 54 46" fill="none" xmlns="http://www.w3.org/2000/svg">
<g clip-path="url(#clip0_1198_76)">
<path d="M0 21.6016C0 29.2285 5.26367 34.3359 13.0859 34.3359C20.8008 34.3359 25.9961 29.7168 25.9961 22.8418C25.9961 19.9609 25.0098 17.627 23.2422 16.1328C22.3438 15.3809 21.7676 15.1172 20.9082 15.1172C19.6484 15.1172 18.7305 15.9473 18.7305 17.1094C18.7305 18.3203 19.209 18.5254 20.5273 19.7559C21.2207 20.4102 21.5918 21.4453 21.5918 22.7734C21.5918 27.0508 18.252 29.8926 13.1543 29.8926C7.91992 29.8926 4.47266 26.582 4.47266 21.582C4.47266 18.5254 6.09375 15.752 8.75977 14.3164L6.46484 10.4688C2.45117 12.7246 0 16.9824 0 21.6016ZM5.27344 10.8984C5.27344 15.7422 8.67188 19.1016 13.8086 19.1016C15.0195 19.1016 16.0352 18.0957 16.0352 16.875C16.0352 15.6445 15.0195 14.6387 13.8086 14.6387C11.2891 14.6387 9.74609 13.125 9.74609 10.8984C9.74609 8.47656 11.748 6.78711 14.4922 6.78711C16.0449 6.78711 17.6172 7.35352 19.0234 8.48633L21.6504 4.83398C19.5117 3.17383 16.9727 2.32422 14.5215 2.32422C9.32617 2.32422 5.27344 5.91797 5.27344 10.8984ZM16.0645 10.1367C16.0449 11.5527 16.9922 12.5293 18.2715 12.5293C19.5215 12.5293 20.4395 11.6699 20.498 10.332C20.625 6.89453 23.0859 4.44336 26.543 4.44336C28.6035 4.44336 30.4492 5.53711 31.1914 7.14844C31.4746 7.65625 31.9336 7.75391 32.5391 7.60742C33.1055 7.46094 33.7695 7.38281 34.4043 7.38281C37.7637 7.41211 40.752 9.98047 40.752 13.7305C40.752 22.5781 27.9688 21.8652 27.9688 31.2207C27.9688 35.8789 31.4941 38.8867 36.416 38.8867C36.6992 38.8867 37.0117 38.877 37.3047 38.8672C37.998 42.4609 40.4199 45.4492 43.8281 45.4492C48.8672 45.4492 51.875 39.9219 51.875 33.1738C51.875 30.0977 51.6895 28.2031 51.4648 26.3672L47.0312 27.5781C47.2266 29.3359 47.4316 30.9473 47.4316 33.125C47.4316 38.0762 45.7324 40.9766 43.8281 40.9766C41.9434 40.9766 40.957 38.3203 40.957 35.7031C40.957 35.2051 40.6055 34.8535 40.0488 34.8633C39.6875 34.8633 39.2188 34.8633 38.5059 34.8633C34.9219 34.8633 32.666 33.5938 32.666 31.0059C32.666 24.668 45.2148 25.5566 45.2148 13.7305C45.2148 7.44141 40.5176 2.91016 34.873 2.91016C34.5605 2.91016 34.1406 2.95898 33.7012 3.03711C31.9531 1.14258 29.3457 0 26.5625 0C20.6348 0 16.1914 4.16992 16.0645 10.1367ZM39.6875 30.0098C39.6875 31.2402 40.6445 32.1484 41.8945 32.2461C49.1016 32.7539 53.9746 28.457 53.9746 21.5918C53.9746 15.8984 49.7852 11.5234 43.623 10.8496L42.8711 15.4004C46.8457 15.1465 49.502 17.6562 49.502 21.5918C49.502 25.7324 46.5332 28.1934 41.9727 27.793C40.7227 27.6855 39.6875 28.75 39.6875 30.0098ZM30.0293 31.748C28.8281 32.2754 27.4023 32.5684 26.0254 32.5684C23.5352 32.5684 21.0254 31.6699 19.8145 30.1465L15.498 33.2422C17.7637 35.5371 21.3965 37.0215 25.5176 37.0215C27.4902 37.0215 29.5801 36.6895 31.5723 36.0254L30.0293 31.748ZM22.5 18.4961L24.0234 22.793C29.5117 21.875 32.3145 18.5449 32.207 13.3594C32.168 12.1387 31.123 11.1328 29.8926 11.1328C28.6719 11.1328 27.6758 12.1387 27.7344 13.3594C27.8516 16.5723 26.3281 18.1152 22.5 18.4961Z" fill="white" fill-opacity="0.85"/>
</g>
<defs>
<clipPath id="clip0_1198_76">
<rect width="53.9746" height="45.957" fill="white"/>
</clipPath>
</defs>
</svg>
