<svg width="20" height="16" viewBox="0 0 20 16" fill="none" xmlns="http://www.w3.org/2000/svg">
<g clip-path="url(#clip0_1197_60)">
<path d="M0 7.8418C0 8.22754 0.166016 8.62305 0.43457 8.88672L6.79688 15.2344C7.08984 15.5273 7.43652 15.6787 7.7832 15.6787C8.61328 15.6787 9.17969 15.1025 9.17969 14.3359C9.17969 13.9111 8.99414 13.5742 8.73535 13.3252L6.54785 11.1328L3.31543 8.16895L2.71484 9.05273L6.50879 9.25781H17.5488C18.4277 9.25781 19.0137 8.68652 19.0137 7.8418C19.0137 6.99707 18.4277 6.42578 17.5488 6.42578H6.50879L2.71484 6.63086L3.31543 7.52441L6.54785 4.55078L8.73535 2.35352C8.99414 2.09473 9.17969 1.76758 9.17969 1.34277C9.17969 0.576172 8.61328 0 7.7832 0C7.43652 0 7.08984 0.146484 6.78711 0.454102L0.43457 6.79688C0.166016 7.06055 0 7.45605 0 7.8418Z" fill="white" fill-opacity="0.85"/>
</g>
<defs>
<clipPath id="clip0_1197_60">
<rect width="19.0137" height="15.752" fill="white"/>
</clipPath>
</defs>
</svg>
